<svg width="60" height="60" viewBox="0 0 60 60" fill="none" xmlns="http://www.w3.org/2000/svg">
<path fill-rule="evenodd" clip-rule="evenodd" d="M60 30C60 46.5684 46.5684 60 30 60C13.4314 60 0 46.5684 0 30C0 13.4314 13.4314 0 30 0C46.5684 0 60 13.4314 60 30ZM39 21C39 25.9707 34.9707 30 30 30C25.0293 30 21 25.9707 21 21C21 16.0294 25.0293 12 30 12C34.9707 12 39 16.0294 39 21ZM30 55.5C35.352 55.5 40.3191 53.8512 44.4207 51.0336C46.2324 49.7892 47.0064 47.4186 45.9534 45.4896C43.77 41.4909 39.2706 39 29.9997 39C20.7291 39 16.2299 41.4906 14.0464 45.4896C12.9931 47.4186 13.7673 49.7889 15.5789 51.0333C19.6805 53.8509 24.6477 55.5 30 55.5Z" fill="#EAEAEA"/>
</svg>
